<svg width="788" height="200" viewBox="0 0 788 200" fill="#000"
    xmlns="http://www.w3.org/2000/svg">
    <path
        d="M99.9506 0C44.8395 0 0 44.8395 0 99.9506C0 155.062 44.8395 199.901 99.9506 199.901C155.062 199.901 199.901 155.062 199.901 99.9506C199.901 44.8395 155.062 0 99.9506 0ZM99.9506 8.59259C107.654 8.59259 115.16 9.58025 122.37 11.358C119.605 35.1605 111.901 62.0247 99.9506 62.0247C88 62.0247 80.2963 35.1605 77.5309 11.358C84.642 9.48148 92.1481 8.59259 99.9506 8.59259ZM60.1482 17.5802C65.7778 40.4938 83.1605 67.5556 99.8519 67.6543C116.642 67.6543 133.926 40.5926 139.556 17.5802C144.099 19.7531 148.444 22.321 152.593 25.2839C143.802 46.0247 124.346 75.358 99.8519 76.0494C75.4568 75.358 55.9012 46.0247 47.1111 25.2839C51.2593 22.4198 55.6049 19.8519 60.1482 17.5802ZM99.9506 191.407C92.2469 191.407 84.7407 190.42 77.5309 188.642C80.2963 164.84 88 137.975 99.9506 137.975C111.901 137.975 119.605 164.84 122.37 188.642C115.16 190.519 107.654 191.407 99.9506 191.407ZM139.654 182.321C134.025 159.407 116.642 132.346 99.9506 132.247C83.1605 132.247 65.8765 159.309 60.2469 182.321C55.7037 180.148 51.358 177.58 47.2099 174.617C56 153.877 75.4568 124.543 99.9506 123.852C124.346 124.543 143.901 153.877 152.691 174.617C148.543 177.58 144.198 180.148 139.654 182.321ZM167.012 162.074C154.765 143.802 128.296 118.222 99.9506 118.222C71.6049 118.222 45.1358 143.802 32.8889 162.074C29.5309 158.42 26.4691 154.568 23.7037 150.42C36.642 133.728 63.8025 109.728 99.9506 109.728C136 109.728 163.259 133.728 176.198 150.42C173.432 154.568 170.37 158.42 167.012 162.074ZM191.309 99.9506C191.309 111.506 189.136 122.568 185.185 132.741C164.543 115.556 132.84 104.198 99.8519 104.198C66.8642 104.198 35.1605 115.556 14.5185 132.84C10.5679 122.667 8.39506 111.605 8.39506 100.049C8.39506 88.4938 10.5679 77.4321 14.5185 67.2593C35.1605 84.4444 66.8642 95.9012 99.8519 95.9012C132.84 95.9012 164.543 84.5432 185.185 67.358C189.136 77.3333 191.309 88.3951 191.309 99.9506ZM99.9506 90.1728C63.9012 90.1728 36.642 66.1728 23.7037 49.4815C26.4691 45.3333 29.5309 41.4815 32.8889 37.8272C45.1358 56.0988 71.6049 81.679 99.9506 81.679C128.296 81.679 154.765 56.0988 167.012 37.8272C170.37 41.4815 173.432 45.3333 176.099 49.4815C163.16 66.1728 136 90.1728 99.9506 90.1728ZM655.012 72.9876C653.827 75.2593 648.593 82.4691 637.728 82.4691C629.136 82.4691 623.704 77.9259 621.333 70.8148C622.518 70.9136 623.802 71.0123 624.988 71.0123C641.877 71.0123 653.037 64 653.037 53.9259C653.037 44.8395 643.951 38.4197 631.506 38.4197C613.037 38.4197 601.284 50.1728 601.284 67.7531C601.284 84.8395 612.247 95.9012 628.148 95.9012C647.407 95.9012 655.309 79.6049 656.099 73.1852C656.296 72.3951 655.506 72 655.012 72.9876ZM619.951 61.9259C619.951 53.037 622.914 41.679 630.025 41.679C632.889 41.679 634.765 44.5432 634.667 50.5679C634.667 60.642 629.63 66.963 620.741 68.8395C620.346 66.7654 619.951 64.3951 619.951 61.9259ZM228.543 25.5802C227.951 24.9877 227.852 23.7037 229.333 23.6049H229.531H256.099C257.086 23.6049 257.086 23.8025 257.482 24.0988C259.062 24.8889 268.346 44.9383 264.395 63.7037C273.185 47.6049 280.79 36.8395 280.889 36.4444C281.482 35.6543 281.975 35.4568 282.568 35.7531C283.358 36.1481 283.259 36.8395 283.161 37.1358C280.099 52.0494 282.37 67.8519 287.111 75.9506C291.654 83.5555 300.84 85.7284 304.099 77.9259C312.296 58.963 291.753 36.1482 287.704 31.9012C285.827 29.9259 286.42 28.3457 286.914 27.7531C295.802 19.2593 307.753 22.321 311.802 28.9383C315.753 35.4568 319.407 45.6296 314.37 63.5062C311.605 73.3827 305.086 92.7407 283.062 96.0988C278.815 96.6914 277.333 95.1111 275.852 93.037C272.889 88.8889 269.235 80 270.716 68.5432C271.407 63.2099 272.593 59.7531 274.173 55.1111L273.383 56.4938C266.568 69.1358 259.358 83.4568 252.346 93.9259L251.556 95.1111C250.765 96.2963 249.877 96.4938 249.383 96.1975C248.889 96 248.988 95.1111 249.284 93.9259C257.482 60.7407 235.358 33.679 228.543 25.5802ZM514.074 93.3333C516.346 89.3827 517.432 85.6296 517.531 81.284V80.4938V55.5062C517.531 49.0864 515.753 46.6173 514.568 45.1358C514.37 44.9383 514.37 44.4444 514.667 44.3457H514.765L534.123 39.0123C535.21 38.6173 535.506 38.6173 535.901 38.6173C536.296 38.6173 536.494 38.8148 536.494 39.2099C536.494 41.1852 536.296 46.1235 536.099 51.358C539.457 43.2593 545.481 38.6173 552.494 38.6173C559.309 38.6173 564.049 43.0617 565.531 50.8642L565.63 51.4568H565.827C568.79 43.1605 574.914 38.5185 582.025 38.5185C590.518 38.5185 595.457 45.1358 595.753 56.4938V80.5926C595.753 85.037 596.84 89.7778 598.716 93.3333C598.815 93.7284 598.716 94.0247 598.518 94.0247H598.42H574.42C574.025 94.0247 573.827 93.6296 574.025 93.3333C575.901 89.4815 576.889 85.7284 576.988 81.4815V80.6914V57.7778C576.988 52.9383 575.111 50.0741 572.148 50.0741C568.593 50.0741 566.222 53.9259 566.123 60.7407V80.6914C566.123 85.1358 567.407 89.7778 569.086 93.4321C569.185 93.8272 569.086 94.1235 568.889 94.1235H568.79H544.79C544.395 94.1235 544.198 93.7284 544.395 93.4321C546.173 89.4815 547.259 85.8272 547.358 81.5803V80.7901V57.8765C547.358 53.037 545.481 50.1728 542.518 50.1728C538.963 50.1728 536.593 54.0247 536.494 60.8395V61.4321V80.7901C536.494 85.2346 537.679 89.9753 539.457 93.5309C539.654 93.9259 539.457 94.2222 539.259 94.2222H539.062H514.568C514.074 94.0247 513.975 93.6296 514.074 93.3333ZM428.543 96C444.049 96 451.852 85.3333 454.716 77.8272C457.679 87.8025 465.975 96 482.864 96C499.358 96 511.407 83.2593 511.407 65.7778C511.407 51.0617 501.63 38.4197 482.272 38.4197C465.481 38.4197 453.136 51.0617 453.333 68.2469C453.333 70.5185 453.531 72.6914 453.926 74.7654C451.654 77.7284 446.518 82.5679 437.827 82.5679C426.173 82.5679 420.247 73.7778 420.247 61.6296C420.247 53.1358 423.111 41.679 429.432 41.679C434.568 41.679 436.247 49.679 434.173 59.6543C433.778 61.037 434.272 61.3333 434.963 61.037L449.975 56.5926L450.173 56.4938C452.148 55.7037 452.346 53.7284 450.963 51.358C445.728 42.1728 438.518 38.321 429.531 38.321C414.42 38.321 401.481 48.8889 401.481 67.6543C401.679 84.7407 412.444 96 428.543 96ZM480.988 41.679H481.185H481.58C487.012 41.8765 489.679 50.7654 490.667 66.8642C491.457 83.5556 489.481 92.5432 483.753 92.9383C477.926 93.1358 475.16 84.3457 474.272 67.5555C473.383 50.963 475.259 42.0741 480.988 41.679ZM372.741 73.284C372.84 72.2963 372.049 72 371.556 72.8889C370.37 75.1605 365.136 82.3704 354.272 82.3704C345.679 82.3704 340.247 77.8272 337.877 70.7161C338.963 70.8148 340.148 70.9136 341.531 70.9136C358.42 70.9136 369.58 63.9012 369.58 53.8272C369.58 44.7407 360.691 38.321 348.049 38.321C329.58 38.321 317.827 50.0741 317.728 67.6543C317.728 84.7407 328.79 95.8025 344.691 95.8025C364.049 96 371.951 79.7037 372.741 73.284ZM336.494 61.9259C336.494 53.037 339.457 41.679 346.568 41.679C349.432 41.679 351.309 44.5432 351.309 50.5679C351.309 60.642 346.173 66.963 337.284 68.8395C336.79 66.7654 336.494 64.3951 336.494 61.9259ZM371.062 27.0617C370.864 26.8642 370.864 26.3704 371.16 26.2716H371.259L393.877 19.7531C394.667 19.358 395.161 19.2593 395.457 19.2593C395.852 19.2593 396.049 19.4568 396.049 19.8519C396.049 20.4444 395.654 22.8148 395.654 26.6667V80.4938C395.654 84.9383 397.235 89.5802 399.111 93.2346C399.309 93.6296 399.111 93.9259 398.914 93.9259H398.815H373.827C373.432 93.9259 373.235 93.5309 373.432 93.2346C375.407 89.284 376.691 85.6296 376.889 81.3827V41.3827C376.889 36.3457 375.21 32.2963 372.444 28.9383L372.049 28.4444L371.062 27.0617ZM786.765 153.481C785.58 155.753 780.346 162.963 769.481 162.963C760.889 162.963 755.457 158.321 753.086 151.21C754.173 151.309 755.358 151.407 756.741 151.407C773.63 151.407 784.79 144.395 784.79 134.321C784.79 125.235 775.901 118.815 763.259 118.815C744.988 118.815 733.037 130.568 732.938 148.346C732.938 165.432 744 176.494 759.901 176.494C779.16 176.494 787.062 160.198 787.852 153.778C788.049 152.889 787.161 152.494 786.765 153.481ZM751.605 142.321C751.605 133.432 754.568 122.074 761.679 122.074C764.642 122.074 766.42 124.938 766.321 130.963C766.321 141.037 761.284 147.259 752.395 149.235C752 147.16 751.605 144.79 751.605 142.321ZM730.667 173.63C730.765 174.025 730.667 174.321 730.469 174.321H730.37H705.481C705.086 174.321 704.889 173.926 705.086 173.63C707.062 169.679 708.346 166.025 708.444 161.778V160.988V121.877C708.444 116.84 706.765 112.79 704 109.432L703.605 108.938L702.518 107.654C702.321 107.457 702.321 106.963 702.617 106.864H702.716L725.333 100.346C726.123 99.9506 726.617 99.8519 726.914 99.8519C727.309 99.8519 727.506 100.049 727.506 100.444C727.506 101.037 727.111 103.407 727.111 107.259V161.185C727.21 165.235 728.79 169.877 730.667 173.63ZM375.704 121.383V121.481L373.926 125.63C373.827 125.827 373.728 126.123 373.333 126.123H373.235H362.173V160.395C362.173 165.531 364.444 167.802 368.691 167.802C371.259 167.802 373.235 167.21 374.321 165.926C374.716 165.531 374.815 165.432 375.012 165.432C375.506 165.432 375.506 165.926 375.407 166.519C373.037 172.938 366.914 176.296 358.519 176.296C348.543 176.296 343.407 171.062 343.21 161.778V161.284V126.222H335.605C335.21 126.222 335.012 126.025 335.012 125.728C335.012 125.333 335.21 125.037 336.099 124.444L336.296 124.346L360.099 108.444C361.086 107.852 361.482 107.654 361.877 107.654C362.272 107.654 362.469 107.852 362.469 108.247C362.469 109.037 362.074 113.877 362.074 120.494V121.086H375.111C375.605 120.889 375.901 120.988 375.704 121.383ZM489.383 153.481C488.198 155.753 482.963 162.963 472.099 162.963C463.506 162.963 458.074 158.321 455.704 151.21C456.79 151.309 457.975 151.407 459.358 151.407C476.247 151.407 487.407 144.395 487.407 134.321C487.407 125.235 478.321 118.815 465.877 118.815C447.407 118.815 435.654 130.568 435.654 148.346C435.654 165.432 446.617 176.494 462.519 176.494C481.778 176.494 489.679 160.198 490.469 153.778C490.667 152.889 489.778 152.494 489.383 153.481ZM454.222 142.321C454.222 133.432 457.185 122.074 464.296 122.074C467.16 122.074 468.938 124.938 469.037 130.963C469.037 141.037 463.901 147.259 455.012 149.235C454.617 147.16 454.222 144.79 454.222 142.321ZM433.877 173.728C433.975 174.123 433.877 174.42 433.679 174.42H433.58H408.593C408.198 174.42 408 174.025 408.198 173.728C410.173 169.778 411.457 166.123 411.556 161.877V161.086V138.765C411.556 133.333 409.679 130.469 406.123 130.469C401.975 130.469 399.605 134.321 399.506 141.728V161.086C399.506 165.531 401.086 170.173 402.963 173.827C403.062 174.222 402.963 174.519 402.765 174.519H402.667H377.778C377.383 174.519 377.185 174.123 377.383 173.827C379.358 169.877 380.642 166.222 380.741 161.975V161.185V122.074C380.741 117.037 379.062 112.988 376.296 109.63L375.901 109.136L374.815 107.852C374.617 107.654 374.617 107.16 374.914 107.062H375.012L397.63 100.543C398.617 100.049 398.914 99.9506 399.21 99.9506C399.605 99.9506 399.802 100.148 399.802 100.543C399.802 101.136 399.407 103.506 399.407 107.358V130.864C402.864 123.16 408.691 118.815 416.198 118.815C425.284 118.815 430.321 125.432 430.518 137.383V160.889C430.42 165.333 432 169.975 433.877 173.728ZM529.383 104.79C527.111 107.16 525.333 109.827 525.235 114.667V159.901C525.235 179.457 515.753 188.346 495.111 188.346C494.025 188.346 493.136 188.247 492.642 188.148C491.852 187.951 491.654 187.161 492.444 186.765C500.642 183.21 505.383 175.605 505.679 165.728V115.457C505.679 110.222 503.802 107.358 501.531 104.889C501.333 104.691 501.136 104.099 501.63 103.901H529.086V104C529.679 103.901 529.679 104.494 529.383 104.79ZM588.148 173.728C588.247 174.123 588.148 174.42 587.951 174.42H587.852H566.815C566.42 174.42 566.222 174.321 566.222 173.926V173.827V163.753C562.864 171.852 556.839 176.494 549.235 176.494C540.148 176.494 535.111 169.877 534.914 158.025V136C534.914 129.58 533.235 126.914 531.951 125.63C531.753 125.432 531.753 124.938 532.049 124.84H532.148L551.506 119.506C552.593 119.111 552.889 119.111 553.284 119.111C553.679 119.111 553.877 119.21 553.877 119.605V156.938C553.877 162.37 555.753 165.235 559.309 165.235C563.457 165.235 565.827 161.383 565.926 153.975V136.099C565.926 129.679 564.247 127.012 562.963 125.728C562.765 125.531 562.765 125.037 563.062 124.938H563.161L582.518 119.605C583.21 119.012 583.605 118.914 583.901 118.914C584.296 118.914 584.494 119.012 584.494 119.407V119.506V160.988C584.79 165.333 586.272 169.975 588.148 173.728ZM647.704 173.728C647.802 174.123 647.704 174.42 647.506 174.42H647.407H622.518C622.123 174.42 621.926 174.025 622.123 173.728C624.099 169.778 625.383 166.123 625.481 161.877V161.086V138.765C625.481 133.333 623.605 130.469 620.049 130.469C615.901 130.469 613.531 134.321 613.432 141.728V142.321V161.086C613.432 165.531 614.716 170.272 616.889 173.827C616.988 174.222 616.889 174.519 616.691 174.519H616.593H591.704C591.21 174.519 591.111 174.123 591.21 173.827C593.481 169.877 594.568 166.123 594.667 161.778V160.988V136C594.667 129.481 592.889 127.111 591.704 125.63C591.506 125.432 591.506 124.938 591.802 124.84H591.901L611.259 119.506C612.346 119.111 612.642 119.111 613.037 119.111C613.432 119.111 613.63 119.309 613.63 119.704C613.63 121.679 613.432 126.617 613.235 131.852C616.198 123.654 622.321 119.012 630.025 119.012C638.914 119.012 644.049 125.63 644.346 137.58V138.173V161.086C644.247 165.333 645.728 169.975 647.704 173.728ZM296 118.716C279.21 118.716 266.864 131.16 266.864 148.346C266.864 153.383 267.852 158.321 270.123 162.765C267.654 165.728 264.889 167.309 261.63 167.309C257.482 167.309 255.111 164.839 255.111 160.395V126.123H267.259H267.358C267.556 126.123 267.556 125.926 267.852 125.531L269.827 121.481V121.383C269.827 120.988 269.432 120.889 269.136 120.889H255.012V120.296C255.111 113.679 255.506 108.84 255.506 108.049C255.506 107.654 255.309 107.457 254.914 107.457C254.518 107.457 254.123 107.654 253.333 108.148L229.531 124.049L229.333 124.148C228.543 124.741 228.247 125.136 228.247 125.432C228.247 125.63 228.444 125.926 228.84 125.926H236.346V161.481C236.543 170.765 242.37 176 252.543 176C261.136 176 268.049 172.049 271.704 164.938C276.148 171.556 283.951 176.198 296.691 176.198C313.185 176.198 325.235 163.457 325.235 145.975C325.136 131.358 315.457 118.716 296 118.716ZM297.482 173.333C291.654 173.728 288.889 164.741 288 147.951C287.21 131.259 289.086 122.37 294.815 121.975H295.012H295.407C300.839 122.173 303.605 131.062 304.494 147.16C305.185 163.951 303.21 172.938 297.482 173.333ZM689.284 167.407H669.728C665.482 167.309 663.111 165.827 663.111 163.259C663.111 161.975 663.506 160.889 664.198 159.802C667.457 160.889 671.21 161.383 675.753 161.383C690.272 161.383 700.741 151.901 700.741 139.16C700.741 131.654 696.691 125.037 688.691 121.481H702.518C702.914 121.481 703.012 121.284 703.012 120.889C703.012 116.84 697.778 111.605 695.802 111.605C695.605 111.605 695.21 111.704 694.617 112.099C692.148 113.481 688.889 116.247 685.728 120.593C682.765 119.802 679.309 119.309 675.358 119.309C660.741 119.309 649.877 128.494 649.877 141.037C649.877 148.247 653.234 155.654 662.123 159.309C654.914 161.284 650.074 166.321 650.074 171.654C650.074 176.099 652.444 179.259 656.889 181.136C652.642 184.395 650.469 188.049 650.469 191.21C650.469 196.543 656.395 200 664.494 200C678.42 200 703.704 189.531 703.704 177.185C703.704 170.864 698.568 167.407 689.284 167.407ZM674.173 122.074H674.37H674.568C678.815 122.272 681.383 128.494 682.074 139.753C682.765 151.21 681.086 157.827 676.346 158.025C672.099 158.123 669.136 152.593 668.346 140.148C667.753 128.494 669.827 122.272 674.173 122.074ZM678.716 192.593C671.309 192.593 661.926 190.617 657.877 181.333C660.247 182.123 663.21 182.617 666.667 182.617H682.864C687.605 182.617 689.778 184.198 689.778 186.864C689.778 190.222 685.235 192.593 678.716 192.593Z"
        fill="#000" />
</svg>